solid Created by Gmsh
facet normal 0 0 -1
  outer loop
    vertex 0 -0.115 0
    vertex 0.0918086 -0.0918086 0
    vertex 0 -0.23 0
  endloop
endfacet
facet normal -0 0 -1
  outer loop
    vertex 0.23 -2.55351e-017 0
    vertex 0.0918086 -0.0918086 0
    vertex 0.115 -1.27676e-017 0
  endloop
endfacet
facet normal 0 0 -1
  outer loop
    vertex 0.162635 -0.162635 0
    vertex 0.0918086 -0.0918086 0
    vertex 0.23 -2.55351e-017 0
  endloop
endfacet
facet normal 0 0 -1
  outer loop
    vertex 0 -0.23 0
    vertex 0.0918086 -0.0918086 0
    vertex 0.162635 -0.162635 0
  endloop
endfacet
facet normal 0 0 -1
  outer loop
    vertex 0 0 0
    vertex 0.0918086 -0.0918086 0
    vertex 0 -0.115 0
  endloop
endfacet
facet normal -0 0 -1
  outer loop
    vertex 0.115 -1.27676e-017 0
    vertex 0.0918086 -0.0918086 0
    vertex 0 0 0
  endloop
endfacet
facet normal 0 -0 -1
  outer loop
    vertex 5.10703e-017 0.23 0
    vertex 0.0918086 0.0918086 0
    vertex 2.55351e-017 0.115 0
  endloop
endfacet
facet normal 0 0 -1
  outer loop
    vertex 0.115 -1.27676e-017 0
    vertex 0.0918086 0.0918086 0
    vertex 0.23 -2.55351e-017 0
  endloop
endfacet
facet normal -0 0 -1
  outer loop
    vertex 0.162635 0.162635 0
    vertex 0.0918086 0.0918086 0
    vertex 5.10703e-017 0.23 0
  endloop
endfacet
facet normal 0 0 -1
  outer loop
    vertex 0.23 -2.55351e-017 0
    vertex 0.0918086 0.0918086 0
    vertex 0.162635 0.162635 0
  endloop
endfacet
facet normal 0 0 -1
  outer loop
    vertex 0 0 0
    vertex 0.0918086 0.0918086 0
    vertex 0.115 -1.27676e-017 0
  endloop
endfacet
facet normal 0 -0 -1
  outer loop
    vertex 2.55351e-017 0.115 0
    vertex 0.0918086 0.0918086 0
    vertex 0 0 0
  endloop
endfacet
endsolid Created by Gmsh
