solid Created by Gmsh
facet normal 0 0 -1
  outer loop
    vertex 0 -2 0
    vertex 3 -3 0
    vertex 0 -6 0
  endloop
endfacet
facet normal 0 0 -1
  outer loop
    vertex 0 6 0
    vertex 3 3 0
    vertex 0 2 0
  endloop
endfacet
facet normal 0 0 -1
  outer loop
    vertex 0 -2 0
    vertex 0 2 0
    vertex 2.38095 7.91726e-013 0
  endloop
endfacet
facet normal 0 -0 -1
  outer loop
    vertex 3 3 0
    vertex 6 0 0
    vertex 2.38095 7.91726e-013 0
  endloop
endfacet
facet normal -0 0 -1
  outer loop
    vertex 6 0 0
    vertex 3 -3 0
    vertex 2.38095 7.91726e-013 0
  endloop
endfacet
facet normal 0 0 -1
  outer loop
    vertex 3 -3 0
    vertex 0 -2 0
    vertex 2.38095 7.91726e-013 0
  endloop
endfacet
facet normal 0 0 -1
  outer loop
    vertex 0 2 0
    vertex 3 3 0
    vertex 2.38095 7.91726e-013 0
  endloop
endfacet
endsolid Created by Gmsh
