solid Created by Gmsh
facet normal 0 0 1
  outer loop
    vertex 0 0 0
    vertex 1 0 0
    vertex 0.707107 0.707107 0
  endloop
endfacet
facet normal 0 0 1
  outer loop
    vertex 0 0 0
    vertex 0.707107 0.707107 0
    vertex 6.12303e-017 1 0
  endloop
endfacet
facet normal 0 -0 1
  outer loop
    vertex 0 0 0
    vertex 6.12303e-017 1 0
    vertex -0.707107 0.707107 0
  endloop
endfacet
facet normal 0 0 1
  outer loop
    vertex 0 0 0
    vertex -0.707107 0.707107 0
    vertex -1 1.22461e-016 0
  endloop
endfacet
facet normal 0 0 1
  outer loop
    vertex 0 0 0
    vertex -0.707107 -0.707107 0
    vertex -1.83691e-016 -1 0
  endloop
endfacet
facet normal 0 0 1
  outer loop
    vertex 0 0 0
    vertex -1 1.22461e-016 0
    vertex -0.707107 -0.707107 0
  endloop
endfacet
facet normal -0 0 1
  outer loop
    vertex 0 0 0
    vertex 0.707107 -0.707107 0
    vertex 1 0 0
  endloop
endfacet
facet normal 0 0 1
  outer loop
    vertex 0 0 0
    vertex -1.83691e-016 -1 0
    vertex 0.707107 -0.707107 0
  endloop
endfacet
endsolid Created by Gmsh
